HIERARCHY
ROOT Hips
{
  OFFSET 62.0712 39.0038 54.7907
  CHANNELS 6 Xposition Yposition Zposition Zrotation Xrotation Yrotation
  JOINT LeftHip
  {
    OFFSET 3.43 2.13163e-014 0
    CHANNELS 3 Zrotation Xrotation Yrotation
    JOINT LeftKnee
    {
      OFFSET -2.34479e-013 -18.47 -1.84741e-013
      CHANNELS 3 Zrotation Xrotation Yrotation
      JOINT LeftAnkle
      {
        OFFSET -2.11031e-012 -17.95 -2.33058e-012
        CHANNELS 3 Zrotation Xrotation Yrotation
        End Site
        {
          OFFSET 0 -3.12 0
        }
      }
    }
  }
  JOINT RightHip
  {
    OFFSET -3.43 1.42109e-014 0
    CHANNELS 3 Zrotation Xrotation Yrotation
    JOINT RightKnee
    {
      OFFSET -3.48166e-013 -18.47 -1.7053e-013
      CHANNELS 3 Zrotation Xrotation Yrotation
      JOINT RightAnkle
      {
        OFFSET -5.50671e-013 -17.95 -5.54223e-013
        CHANNELS 3 Zrotation Xrotation Yrotation
        End Site
        {
          OFFSET 0 -3.12 0
        }
      }
    }
  }
  JOINT Chest
  {
    OFFSET 7.10543e-015 4.57 -5.68434e-014
    CHANNELS 3 Zrotation Xrotation Yrotation
    JOINT Chest2
    {
      OFFSET 1.42109e-014 6.57 2.84217e-014
      CHANNELS 3 Zrotation Xrotation Yrotation
      JOINT LeftCollar
      {
        OFFSET 1.06 4.19 1.76
        CHANNELS 3 Zrotation Xrotation Yrotation
        JOINT LeftShoulder
        {
          OFFSET 5.81 2.84217e-014 -4.26326e-014
          CHANNELS 3 Zrotation Xrotation Yrotation
          JOINT LeftElbow
          {
            OFFSET -9.37916e-013 -12.08 -1.54898e-012
            CHANNELS 3 Zrotation Xrotation Yrotation
            JOINT LeftWrist
            {
              OFFSET -3.4138e-011 -9.82 -7.12674e-012
              CHANNELS 3 Zrotation Xrotation Yrotation
              End Site
              {
                OFFSET 0 -7.37 0
              }
            }
          }
        }
      }
      JOINT RightCollar
      {
        OFFSET -1.06 4.19 1.76
        CHANNELS 3 Zrotation Xrotation Yrotation
        JOINT RightShoulder
        {
          OFFSET -6.06 7.10543e-015 1.42109e-013
          CHANNELS 3 Zrotation Xrotation Yrotation
          JOINT RightElbow
          {
            OFFSET -3.33955e-013 -11.08 -2.84217e-014
            CHANNELS 3 Zrotation Xrotation Yrotation
            JOINT RightWrist
            {
              OFFSET -9.66693e-012 -9.82 -3.43903e-012
              CHANNELS 3 Zrotation Xrotation Yrotation
              End Site
              {
                OFFSET 0 -7.14001 0
              }
            }
          }
        }
      }
      JOINT Neck
      {
        OFFSET 2.84217e-014 4.05 0
        CHANNELS 3 Zrotation Xrotation Yrotation
        JOINT Head
        {
          OFFSET 9.9476e-014 5.19 8.52651e-014
          CHANNELS 3 Zrotation Xrotation Yrotation
          End Site
          {
            OFFSET 0 4.14001 0
          }
        }
      }
    }
  }
}
MOTION
Frames:	7
Frame Time:	0.0333333
-1.73328 39.1342 -18.8918 -5.72352 2.84668 -128.683 -5.71882 -0.685392 -5.80066 -4.17055 19.9335 8.22349 6.04827 -13.4217 0.712325 -1.42616 -14.0303 -1.20946 -2.23159 60.0667 -7.93361 -3.33181 -4.86807 -0.141667 -0.0678914 4.92489 -0.94371 -0.393488 7.1259 -1.2088 11.0458 0.0808737 1.53135 10.4909 -9.60662 1.88274 -9.59348 -20.0784 -42.9561 12.6148 -0.844386 0.0933334 -7.65665 0.391175 -4.551 -9.97529 6.80493 -5.25791 5.85412 -21.271 36.4417 -1.09762 -1.03821 -0.00994517 4.87356 3.18924 10.8673 -5.04152 11.4327 18.3935 
-2.63716 39.1233 -19.6488 -5.04707 3.31768 -127.596 -4.53716 1.11488 -5.1931 -4.38099 19.6385 6.74722 6.45916 -15.053 0.854294 -0.650806 -16.9738 -0.433777 -1.88533 54.2627 -10.5659 -3.77185 -9.48691 -0.313095 0.548675 4.79012 -1.31885 0.0657508 6.9207 -1.67221 11.0277 0.0698748 1.3271 10.0556 -12.1562 0.981918 -9.74296 -20.9009 -42.9008 12.5544 -1.10839 0.121925 -7.62334 0.393355 -4.70383 -10.271 7.00437 -5.38792 5.90315 -21.668 36.2584 -1.13115 -1.16332 -0.0114841 5.07859 2.858 11.1388 -5.46667 10.7493 19.0162 
-3.5321 39.0636 -20.4129 -4.42008 3.3834 -126.416 -3.59461 2.74855 -4.69665 -4.65883 19.2101 5.39581 6.84016 -16.6196 1.00023 -0.622563 -18.9105 -0.0176746 -1.3569 44.9624 -12.3639 -3.73905 -10.6112 -0.347352 0.909566 4.55239 -1.67969 0.312701 6.57196 -2.10726 11.0319 0.0592432 1.1244 9.66543 -14.4432 0.153983 -9.84979 -21.3487 -43.1688 12.3843 -1.42758 0.154894 -7.53898 0.392527 -4.82266 -10.5098 7.2841 -5.56637 5.85951 -21.6793 36.1703 -1.06821 -1.21014 -0.0112815 5.3476 2.39197 11.2579 -5.76587 10.0615 19.3918 
-4.4347 38.9485 -21.202 -3.9098 3.07375 -125.234 -3.06491 4.31144 -4.48022 -4.76511 18.72 4.30546 7.0233 -18.1927 1.12587 -1.3164 -19.5656 -0.0689062 -0.788142 32.4038 -14.0466 -2.58896 -7.24281 -0.163882 1.00827 4.25273 -2.01636 0.293303 6.13823 -2.49297 11.0404 0.05084 0.963561 9.32914 -16.299 -0.509065 -9.8909 -21.633 -43.5227 12.2097 -1.68173 0.179881 -7.39984 0.388267 -4.89902 -10.6146 7.58316 -5.80812 5.66789 -21.3146 36.0534 -0.927776 -1.1902 -0.00963689 5.6469 1.76702 11.2616 -5.94545 9.38719 19.5534 
-5.37233 38.7767 -22.048 -3.5924 2.55289 -124.192 -2.8363 6.0735 -4.47672 -4.7193 18.0923 3.31811 7.05389 -19.7884 1.23188 -2.32587 -19.7428 -0.242613 -0.564748 20.2607 -15.9821 -0.0380219 -6.59701 -0.00219133 0.886709 3.96101 -2.31248 0.0485008 5.71782 -2.79477 11.0312 0.0459197 0.871638 9.07694 -17.564 -0.91729 -9.85503 -21.8959 -43.7478 12.099 -1.82749 0.193689 -7.21264 0.380653 -4.91953 -10.598 7.86455 -6.07764 5.3725 -20.6453 35.9028 -0.75091 -1.13905 -0.00746445 5.92287 1.02494 11.2044 -6.02548 8.73514 19.5576 
-6.38885 38.5407 -22.9981 -3.60517 1.95394 -123.402 -2.78291 8.36978 -4.53594 -4.62989 17.1636 2.24027 7.03797 -21.3773 1.33001 -3.1826 -20.421 0.109877 -0.978394 11.8901 -17.2429 2.30833 -7.76242 0.156627 0.499864 3.71502 -2.55552 -0.305406 5.37219 -2.9948 10.983 0.0446107 0.853636 8.9482 -18.0914 -1.0131 -9.75553 -22.1184 -43.8033 12.06 -1.89701 0.200407 -6.98665 0.370225 -4.87824 -10.5496 8.14787 -6.31967 5.073 -19.7433 35.8321 -0.605289 -1.07482 -0.00567757 6.11055 0.266954 11.133 -6.01382 8.12993 19.4547 
-7.49517 38.2808 -24.0764 -3.73668 1.73323 -122.926 -2.4426 11.5803 -4.51849 -4.43684 15.3184 0.963477 7.0127 -22.6471 1.40596 -3.2043 -22.3045 0.598527 -1.75143 11.8281 -17.8755 6.32339 -10.7884 0.597694 0.271593 3.56824 -2.7207 -0.621995 5.14294 -3.10697 10.8886 0.0464363 0.902833 8.9285 -17.8511 -0.803706 -9.60064 -22.111 -43.7789 12.0737 -1.93326 0.204469 -6.74335 0.358599 -4.79563 -10.516 8.39194 -6.50464 4.8119 -18.6716 35.8985 -0.531701 -0.997797 -0.00462989 6.15542 -0.383499 11.0595 -5.90034 7.63971 19.263 
